<svg xmlns="http://www.w3.org/2000/svg" xmlns:xlink="http://www.w3.org/1999/xlink" width="30" height="30" version="1.1" style=""><rect id="backgroundrect" width="100%" height="100%" x="0" y="0" fill="none" stroke="none"/>

<g class="currentLayer" style=""><title>Layer 1</title><g id="surface1" class="selected" opacity="1" fill="#ffffff" fill-opacity="1">
<path style="stroke: none; fill-rule: nonzero;" d="M 3.578125 9.957031 C 3.46875 9.847656 3.316406 9.785156 3.164062 9.785156 C 3.011719 9.785156 2.859375 9.847656 2.75 9.957031 C 2.640625 10.066406 2.578125 10.21875 2.578125 10.371094 C 2.578125 10.523438 2.640625 10.675781 2.75 10.785156 C 2.859375 10.894531 3.011719 10.957031 3.164062 10.957031 C 3.316406 10.957031 3.46875 10.894531 3.578125 10.785156 C 3.6875 10.675781 3.75 10.523438 3.75 10.371094 C 3.75 10.21875 3.6875 10.066406 3.578125 9.957031 Z M 3.578125 9.957031 " id="svg_1" opacity="1" fill="#ffffff" fill-opacity="1"/>
<path style="stroke: none; fill-rule: nonzero;" d="M 25.664062 0 L 13.808594 0 C 13.484375 0 13.222656 0.261719 13.222656 0.585938 C 13.222656 0.910156 13.484375 1.171875 13.808594 1.171875 L 25.664062 1.171875 C 25.988281 1.171875 26.25 1.433594 26.25 1.757812 L 26.25 28.242188 C 26.25 28.566406 25.988281 28.828125 25.664062 28.828125 L 4.335938 28.828125 C 4.011719 28.828125 3.75 28.566406 3.75 28.242188 L 3.75 12.558594 C 3.75 12.234375 3.488281 11.972656 3.164062 11.972656 C 2.839844 11.972656 2.578125 12.234375 2.578125 12.558594 L 2.578125 28.242188 C 2.578125 29.210938 3.367188 30 4.335938 30 L 25.664062 30 C 26.632812 30 27.421875 29.210938 27.421875 28.242188 L 27.421875 1.757812 C 27.421875 0.789062 26.632812 0 25.664062 0 Z M 25.664062 0 " id="svg_2" opacity="1" fill="#ffffff" fill-opacity="1"/>
<path style="stroke: none; fill-rule: nonzero;" d="M 15 2.34375 C 14.601562 2.34375 14.199219 2.375 13.808594 2.433594 C 13.488281 2.484375 13.269531 2.78125 13.320312 3.101562 C 13.367188 3.421875 13.667969 3.640625 13.988281 3.59375 C 14.320312 3.542969 14.660156 3.515625 15 3.515625 C 18.652344 3.515625 21.621094 6.484375 21.621094 10.136719 C 21.621094 11.757812 21.035156 13.246094 20.0625 14.398438 C 19.632812 13.660156 19.046875 13.019531 18.335938 12.527344 C 17.917969 12.238281 17.472656 12.007812 17.003906 11.835938 C 17.539062 11.316406 17.871094 10.589844 17.871094 9.785156 L 17.871094 9.214844 C 17.871094 7.628906 16.582031 6.34375 15 6.34375 C 13.417969 6.34375 12.128906 7.628906 12.128906 9.214844 L 12.128906 9.785156 C 12.128906 10.589844 12.460938 11.316406 12.996094 11.835938 C 12.527344 12.007812 12.082031 12.238281 11.664062 12.527344 C 10.949219 13.023438 10.359375 13.664062 9.929688 14.40625 C 9.191406 13.527344 8.671875 12.445312 8.46875 11.242188 C 8.417969 10.921875 8.113281 10.707031 7.796875 10.757812 C 7.476562 10.8125 7.261719 11.117188 7.316406 11.433594 C 7.617188 13.230469 8.546875 14.875 9.941406 16.066406 C 11.347656 17.265625 13.144531 17.929688 15 17.929688 C 19.296875 17.929688 22.792969 14.433594 22.792969 10.136719 C 22.792969 5.839844 19.296875 2.34375 15 2.34375 Z M 13.300781 9.214844 C 13.300781 8.277344 14.0625 7.515625 15 7.515625 C 15.9375 7.515625 16.699219 8.277344 16.699219 9.214844 L 16.699219 9.785156 C 16.699219 10.722656 15.9375 11.484375 15 11.484375 C 14.0625 11.484375 13.300781 10.722656 13.300781 9.785156 Z M 15 16.757812 C 13.414062 16.757812 11.945312 16.203125 10.800781 15.265625 C 11.585938 13.667969 13.195312 12.65625 15 12.65625 C 16.800781 12.65625 18.40625 13.664062 19.195312 15.253906 C 18.054688 16.195312 16.589844 16.757812 15 16.757812 Z M 15 16.757812 " id="svg_3" opacity="1" fill="#ffffff" fill-opacity="1"/>
<path style="stroke: none; fill-rule: nonzero;" d="M 20.410156 23.320312 L 12.089844 23.320312 C 11.769531 23.320312 11.503906 23.582031 11.503906 23.90625 C 11.503906 24.230469 11.769531 24.492188 12.089844 24.492188 L 20.410156 24.492188 C 20.734375 24.492188 20.996094 24.230469 20.996094 23.90625 C 20.996094 23.582031 20.734375 23.320312 20.410156 23.320312 Z M 20.410156 23.320312 " id="svg_4" opacity="1" fill="#ffffff" fill-opacity="1"/>
<path style="stroke: none; fill-rule: nonzero;" d="M 10.003906 20.210938 C 9.894531 20.101562 9.742188 20.039062 9.589844 20.039062 C 9.433594 20.039062 9.28125 20.101562 9.175781 20.210938 C 9.066406 20.320312 9.003906 20.472656 9.003906 20.625 C 9.003906 20.78125 9.066406 20.929688 9.175781 21.039062 C 9.28125 21.148438 9.433594 21.210938 9.589844 21.210938 C 9.742188 21.210938 9.894531 21.148438 10.003906 21.039062 C 10.113281 20.929688 10.175781 20.777344 10.175781 20.625 C 10.175781 20.472656 10.113281 20.320312 10.003906 20.210938 Z M 10.003906 20.210938 " id="svg_5" opacity="1" fill="#ffffff" fill-opacity="1"/>
<path style="stroke: none; fill-rule: nonzero;" d="M 10.003906 23.492188 C 9.894531 23.382812 9.742188 23.320312 9.589844 23.320312 C 9.433594 23.320312 9.28125 23.382812 9.175781 23.492188 C 9.066406 23.601562 9.003906 23.753906 9.003906 23.90625 C 9.003906 24.0625 9.066406 24.210938 9.175781 24.320312 C 9.28125 24.429688 9.433594 24.492188 9.589844 24.492188 C 9.742188 24.492188 9.894531 24.429688 10.003906 24.320312 C 10.113281 24.210938 10.175781 24.0625 10.175781 23.90625 C 10.175781 23.753906 10.113281 23.601562 10.003906 23.492188 Z M 10.003906 23.492188 " id="svg_6" opacity="1" fill="#ffffff" fill-opacity="1"/>
<path style="stroke: none; fill-rule: nonzero;" d="M 20.410156 20.039062 L 12.089844 20.039062 C 11.769531 20.039062 11.503906 20.300781 11.503906 20.625 C 11.503906 20.949219 11.769531 21.210938 12.089844 21.210938 L 20.410156 21.210938 C 20.734375 21.210938 20.996094 20.949219 20.996094 20.625 C 20.996094 20.300781 20.734375 20.039062 20.410156 20.039062 Z M 20.410156 20.039062 " id="svg_7" opacity="1" fill="#ffffff" fill-opacity="1"/>
<path style="stroke: none; fill-rule: nonzero;" d="M 9.46875 3.375 C 9.242188 3.148438 8.871094 3.148438 8.640625 3.375 L 6.734375 5.285156 L 6.082031 4.632812 C 5.851562 4.402344 5.480469 4.402344 5.253906 4.632812 C 5.023438 4.863281 5.023438 5.234375 5.253906 5.460938 L 6.320312 6.527344 C 6.433594 6.640625 6.582031 6.699219 6.734375 6.699219 C 6.882812 6.699219 7.035156 6.640625 7.148438 6.527344 L 9.46875 4.207031 C 9.699219 3.976562 9.699219 3.605469 9.46875 3.375 Z M 9.46875 3.375 " id="svg_8" opacity="1" fill="#ffffff" fill-opacity="1"/>
<path style="stroke: none; fill-rule: nonzero;" d="M 7.382812 0 C 4.734375 0 2.578125 2.15625 2.578125 4.804688 C 2.578125 7.453125 4.734375 9.609375 7.382812 9.609375 C 10.03125 9.609375 12.1875 7.453125 12.1875 4.804688 C 12.1875 2.15625 10.03125 0 7.382812 0 Z M 7.382812 8.4375 C 5.378906 8.4375 3.75 6.808594 3.75 4.804688 C 3.75 2.800781 5.378906 1.171875 7.382812 1.171875 C 9.386719 1.171875 11.015625 2.800781 11.015625 4.804688 C 11.015625 6.808594 9.386719 8.4375 7.382812 8.4375 Z M 7.382812 8.4375 " id="svg_9" opacity="1" fill="#ffffff" fill-opacity="1"/>
</g></g></svg>